<mxfile host="app.diagrams.net" modified="2021-06-07T09:10:20.561Z" agent="5.0 (Windows NT 10.0; Win64; x64) AppleWebKit/537.36 (KHTML, like Gecko) Chrome/86.0.4240.198 Safari/537.36" etag="0a-CNbjSWxP4mI27xnPS" version="14.7.6" type="github" pages="3">
  <diagram id="sP3Y_K0_8GBx8_YusRyA" name="第 1 页">
    <mxGraphModel dx="2638" dy="1348" grid="1" gridSize="10" guides="1" tooltips="1" connect="1" arrows="1" fold="1" page="0" pageScale="1" pageWidth="827" pageHeight="1169" math="0" shadow="0">
      <root>
        <mxCell id="0" />
        <mxCell id="1" parent="0" />
        <mxCell id="rUDEp83lE1K8BglCtXKg-25" style="edgeStyle=orthogonalEdgeStyle;shape=link;rounded=0;orthogonalLoop=1;jettySize=auto;html=1;exitX=0.5;exitY=1;exitDx=0;exitDy=0;entryX=0.5;entryY=0;entryDx=0;entryDy=0;strokeWidth=1;" edge="1" parent="1" source="rUDEp83lE1K8BglCtXKg-1" target="rUDEp83lE1K8BglCtXKg-5">
          <mxGeometry relative="1" as="geometry" />
        </mxCell>
        <mxCell id="rUDEp83lE1K8BglCtXKg-1" value="&lt;font face=&quot;宋体&quot; size=&quot;1&quot;&gt;&lt;b style=&quot;font-size: 16px&quot;&gt;冲账&lt;/b&gt;&lt;/font&gt;" style="rounded=0;whiteSpace=wrap;html=1;strokeWidth=2;" vertex="1" parent="1">
          <mxGeometry x="-1390" y="-340" width="60" height="40" as="geometry" />
        </mxCell>
        <mxCell id="rUDEp83lE1K8BglCtXKg-28" value="" style="edgeStyle=orthogonalEdgeStyle;shape=link;rounded=0;orthogonalLoop=1;jettySize=auto;html=1;strokeWidth=1;" edge="1" parent="1" source="rUDEp83lE1K8BglCtXKg-2" target="rUDEp83lE1K8BglCtXKg-8">
          <mxGeometry relative="1" as="geometry" />
        </mxCell>
        <mxCell id="rUDEp83lE1K8BglCtXKg-2" value="&lt;span&gt;&lt;font face=&quot;宋体&quot; size=&quot;1&quot;&gt;&lt;b style=&quot;font-size: 16px&quot;&gt;序号&lt;/b&gt;&lt;/font&gt;&lt;/span&gt;" style="rounded=0;whiteSpace=wrap;html=1;strokeWidth=2;" vertex="1" parent="1">
          <mxGeometry x="-1030" y="-340" width="60" height="40" as="geometry" />
        </mxCell>
        <mxCell id="rUDEp83lE1K8BglCtXKg-27" value="" style="edgeStyle=orthogonalEdgeStyle;shape=link;rounded=0;orthogonalLoop=1;jettySize=auto;html=1;strokeWidth=1;" edge="1" parent="1" source="rUDEp83lE1K8BglCtXKg-3" target="rUDEp83lE1K8BglCtXKg-6">
          <mxGeometry relative="1" as="geometry" />
        </mxCell>
        <mxCell id="rUDEp83lE1K8BglCtXKg-3" value="&lt;span&gt;&lt;font face=&quot;宋体&quot; size=&quot;1&quot;&gt;&lt;b style=&quot;font-size: 16px&quot;&gt;主机&lt;/b&gt;&lt;/font&gt;&lt;/span&gt;" style="rounded=0;whiteSpace=wrap;html=1;strokeWidth=2;" vertex="1" parent="1">
          <mxGeometry x="-1150" y="-340" width="60" height="40" as="geometry" />
        </mxCell>
        <mxCell id="rUDEp83lE1K8BglCtXKg-26" style="edgeStyle=orthogonalEdgeStyle;shape=link;rounded=0;orthogonalLoop=1;jettySize=auto;html=1;exitX=0.5;exitY=1;exitDx=0;exitDy=0;strokeWidth=1;" edge="1" parent="1" source="rUDEp83lE1K8BglCtXKg-4" target="rUDEp83lE1K8BglCtXKg-7">
          <mxGeometry relative="1" as="geometry" />
        </mxCell>
        <mxCell id="rUDEp83lE1K8BglCtXKg-4" value="&lt;span&gt;&lt;font face=&quot;宋体&quot; size=&quot;1&quot;&gt;&lt;b style=&quot;font-size: 16px&quot;&gt;流水&lt;/b&gt;&lt;/font&gt;&lt;/span&gt;" style="rounded=0;whiteSpace=wrap;html=1;strokeWidth=2;" vertex="1" parent="1">
          <mxGeometry x="-1270" y="-340" width="60" height="40" as="geometry" />
        </mxCell>
        <mxCell id="rUDEp83lE1K8BglCtXKg-29" style="edgeStyle=none;rounded=0;orthogonalLoop=1;jettySize=auto;html=1;exitX=0.5;exitY=1;exitDx=0;exitDy=0;entryX=0.5;entryY=0;entryDx=0;entryDy=0;strokeWidth=2;" edge="1" parent="1" source="rUDEp83lE1K8BglCtXKg-5" target="rUDEp83lE1K8BglCtXKg-15">
          <mxGeometry relative="1" as="geometry" />
        </mxCell>
        <mxCell id="rUDEp83lE1K8BglCtXKg-31" style="edgeStyle=none;rounded=0;orthogonalLoop=1;jettySize=auto;html=1;exitX=0.5;exitY=1;exitDx=0;exitDy=0;entryX=0.5;entryY=0;entryDx=0;entryDy=0;strokeWidth=2;" edge="1" parent="1" source="rUDEp83lE1K8BglCtXKg-5" target="rUDEp83lE1K8BglCtXKg-13">
          <mxGeometry relative="1" as="geometry" />
        </mxCell>
        <mxCell id="rUDEp83lE1K8BglCtXKg-5" value="&lt;font face=&quot;Times New Roman&quot; style=&quot;font-size: 16px&quot;&gt;&lt;b&gt;v&lt;/b&gt;&lt;b&gt;&lt;sub&gt;1&lt;/sub&gt;&lt;/b&gt;&lt;/font&gt;" style="rounded=0;whiteSpace=wrap;html=1;perimeterSpacing=0;strokeWidth=1;" vertex="1" parent="1">
          <mxGeometry x="-1380" y="-230" width="40" height="40" as="geometry" />
        </mxCell>
        <mxCell id="rUDEp83lE1K8BglCtXKg-35" style="edgeStyle=none;rounded=0;orthogonalLoop=1;jettySize=auto;html=1;exitX=0.5;exitY=1;exitDx=0;exitDy=0;entryX=0.5;entryY=0;entryDx=0;entryDy=0;strokeWidth=2;" edge="1" parent="1" source="rUDEp83lE1K8BglCtXKg-6" target="rUDEp83lE1K8BglCtXKg-14">
          <mxGeometry relative="1" as="geometry" />
        </mxCell>
        <mxCell id="rUDEp83lE1K8BglCtXKg-36" style="edgeStyle=none;rounded=0;orthogonalLoop=1;jettySize=auto;html=1;exitX=0.5;exitY=1;exitDx=0;exitDy=0;entryX=0.5;entryY=0;entryDx=0;entryDy=0;strokeWidth=2;" edge="1" parent="1" source="rUDEp83lE1K8BglCtXKg-6" target="rUDEp83lE1K8BglCtXKg-12">
          <mxGeometry relative="1" as="geometry" />
        </mxCell>
        <mxCell id="rUDEp83lE1K8BglCtXKg-6" value="&lt;font style=&quot;font-size: 16px&quot;&gt;&lt;b style=&quot;font-family: &amp;#34;times new roman&amp;#34;&quot;&gt;v&lt;/b&gt;&lt;b style=&quot;font-family: &amp;#34;times new roman&amp;#34;&quot;&gt;&lt;sub&gt;3&lt;/sub&gt;&lt;/b&gt;&lt;/font&gt;" style="rounded=0;whiteSpace=wrap;html=1;strokeWidth=1;" vertex="1" parent="1">
          <mxGeometry x="-1140" y="-230" width="40" height="40" as="geometry" />
        </mxCell>
        <mxCell id="rUDEp83lE1K8BglCtXKg-33" style="edgeStyle=none;rounded=0;orthogonalLoop=1;jettySize=auto;html=1;exitX=0.5;exitY=1;exitDx=0;exitDy=0;entryX=0.5;entryY=0;entryDx=0;entryDy=0;strokeWidth=2;" edge="1" parent="1" source="rUDEp83lE1K8BglCtXKg-7" target="rUDEp83lE1K8BglCtXKg-13">
          <mxGeometry relative="1" as="geometry" />
        </mxCell>
        <mxCell id="rUDEp83lE1K8BglCtXKg-34" style="edgeStyle=none;rounded=0;orthogonalLoop=1;jettySize=auto;html=1;exitX=0.5;exitY=1;exitDx=0;exitDy=0;entryX=0.5;entryY=0;entryDx=0;entryDy=0;strokeWidth=2;" edge="1" parent="1" source="rUDEp83lE1K8BglCtXKg-7" target="rUDEp83lE1K8BglCtXKg-14">
          <mxGeometry relative="1" as="geometry" />
        </mxCell>
        <mxCell id="rUDEp83lE1K8BglCtXKg-7" value="&lt;font style=&quot;font-size: 16px&quot;&gt;&lt;b style=&quot;font-family: &amp;#34;times new roman&amp;#34;&quot;&gt;v&lt;/b&gt;&lt;b style=&quot;font-family: &amp;#34;times new roman&amp;#34;&quot;&gt;&lt;sub&gt;2&lt;/sub&gt;&lt;/b&gt;&lt;/font&gt;" style="rounded=0;whiteSpace=wrap;html=1;strokeWidth=1;" vertex="1" parent="1">
          <mxGeometry x="-1260" y="-230" width="40" height="40" as="geometry" />
        </mxCell>
        <mxCell id="rUDEp83lE1K8BglCtXKg-37" style="edgeStyle=none;rounded=0;orthogonalLoop=1;jettySize=auto;html=1;exitX=0.5;exitY=1;exitDx=0;exitDy=0;entryX=0.5;entryY=0;entryDx=0;entryDy=0;strokeWidth=2;" edge="1" parent="1" source="rUDEp83lE1K8BglCtXKg-8" target="rUDEp83lE1K8BglCtXKg-12">
          <mxGeometry relative="1" as="geometry" />
        </mxCell>
        <mxCell id="rUDEp83lE1K8BglCtXKg-38" style="edgeStyle=none;rounded=0;orthogonalLoop=1;jettySize=auto;html=1;exitX=0.5;exitY=1;exitDx=0;exitDy=0;entryX=0.5;entryY=0;entryDx=0;entryDy=0;strokeWidth=2;" edge="1" parent="1" source="rUDEp83lE1K8BglCtXKg-8" target="rUDEp83lE1K8BglCtXKg-10">
          <mxGeometry relative="1" as="geometry" />
        </mxCell>
        <mxCell id="rUDEp83lE1K8BglCtXKg-8" value="&lt;font style=&quot;font-size: 16px&quot;&gt;&lt;b style=&quot;font-family: &amp;#34;times new roman&amp;#34;&quot;&gt;v&lt;/b&gt;&lt;b style=&quot;font-family: &amp;#34;times new roman&amp;#34;&quot;&gt;&lt;sub&gt;4&lt;/sub&gt;&lt;/b&gt;&lt;/font&gt;" style="rounded=0;whiteSpace=wrap;html=1;strokeWidth=1;" vertex="1" parent="1">
          <mxGeometry x="-1020" y="-230" width="40" height="40" as="geometry" />
        </mxCell>
        <mxCell id="rUDEp83lE1K8BglCtXKg-43" style="edgeStyle=none;rounded=0;orthogonalLoop=1;jettySize=auto;html=1;exitX=0.5;exitY=1;exitDx=0;exitDy=0;entryX=0.5;entryY=0;entryDx=0;entryDy=0;strokeWidth=2;" edge="1" parent="1" source="rUDEp83lE1K8BglCtXKg-10" target="rUDEp83lE1K8BglCtXKg-20">
          <mxGeometry relative="1" as="geometry" />
        </mxCell>
        <mxCell id="rUDEp83lE1K8BglCtXKg-10" value="&lt;b style=&quot;font-family: &amp;#34;times new roman&amp;#34; ; font-size: 16px&quot;&gt;&lt;font style=&quot;font-size: 16px&quot;&gt;X&lt;/font&gt;&lt;sub&gt;&lt;font style=&quot;font-size: 16px&quot;&gt;2&lt;/font&gt;&lt;/sub&gt;&lt;/b&gt;" style="rounded=0;whiteSpace=wrap;html=1;" vertex="1" parent="1">
          <mxGeometry x="-960" y="-140" width="40" height="40" as="geometry" />
        </mxCell>
        <mxCell id="rUDEp83lE1K8BglCtXKg-42" style="edgeStyle=none;rounded=0;orthogonalLoop=1;jettySize=auto;html=1;exitX=0.5;exitY=1;exitDx=0;exitDy=0;entryX=0.5;entryY=0;entryDx=0;entryDy=0;strokeWidth=2;" edge="1" parent="1" source="rUDEp83lE1K8BglCtXKg-12" target="rUDEp83lE1K8BglCtXKg-21">
          <mxGeometry relative="1" as="geometry" />
        </mxCell>
        <mxCell id="rUDEp83lE1K8BglCtXKg-12" value="&lt;b style=&quot;font-family: &amp;#34;times new roman&amp;#34; ; font-size: 16px&quot;&gt;&lt;font style=&quot;font-size: 16px&quot;&gt;X&lt;/font&gt;&lt;sub&gt;&lt;font style=&quot;font-size: 16px&quot;&gt;2&lt;/font&gt;&lt;/sub&gt;&lt;/b&gt;" style="rounded=0;whiteSpace=wrap;html=1;" vertex="1" parent="1">
          <mxGeometry x="-1080" y="-140" width="40" height="40" as="geometry" />
        </mxCell>
        <mxCell id="rUDEp83lE1K8BglCtXKg-40" style="edgeStyle=none;rounded=0;orthogonalLoop=1;jettySize=auto;html=1;exitX=0.5;exitY=1;exitDx=0;exitDy=0;strokeWidth=2;" edge="1" parent="1" source="rUDEp83lE1K8BglCtXKg-13" target="rUDEp83lE1K8BglCtXKg-22">
          <mxGeometry relative="1" as="geometry" />
        </mxCell>
        <mxCell id="rUDEp83lE1K8BglCtXKg-13" value="&lt;b style=&quot;font-family: &amp;#34;times new roman&amp;#34; ; font-size: 16px&quot;&gt;&lt;font style=&quot;font-size: 16px&quot;&gt;X&lt;/font&gt;&lt;sub&gt;&lt;font style=&quot;font-size: 16px&quot;&gt;2&lt;/font&gt;&lt;/sub&gt;&lt;/b&gt;" style="rounded=0;whiteSpace=wrap;html=1;" vertex="1" parent="1">
          <mxGeometry x="-1320" y="-140" width="40" height="40" as="geometry" />
        </mxCell>
        <mxCell id="rUDEp83lE1K8BglCtXKg-41" style="edgeStyle=none;rounded=0;orthogonalLoop=1;jettySize=auto;html=1;exitX=0.5;exitY=1;exitDx=0;exitDy=0;strokeWidth=2;" edge="1" parent="1" source="rUDEp83lE1K8BglCtXKg-14" target="rUDEp83lE1K8BglCtXKg-23">
          <mxGeometry relative="1" as="geometry" />
        </mxCell>
        <mxCell id="rUDEp83lE1K8BglCtXKg-14" value="&lt;b style=&quot;font-family: &amp;#34;times new roman&amp;#34; ; font-size: 16px&quot;&gt;&lt;font style=&quot;font-size: 16px&quot;&gt;X&lt;/font&gt;&lt;sub&gt;&lt;font style=&quot;font-size: 16px&quot;&gt;2&lt;/font&gt;&lt;/sub&gt;&lt;/b&gt;" style="rounded=0;whiteSpace=wrap;html=1;" vertex="1" parent="1">
          <mxGeometry x="-1200" y="-140" width="40" height="40" as="geometry" />
        </mxCell>
        <mxCell id="rUDEp83lE1K8BglCtXKg-39" style="edgeStyle=none;rounded=0;orthogonalLoop=1;jettySize=auto;html=1;exitX=0.5;exitY=1;exitDx=0;exitDy=0;entryX=0.5;entryY=0;entryDx=0;entryDy=0;strokeWidth=2;" edge="1" parent="1" source="rUDEp83lE1K8BglCtXKg-15" target="rUDEp83lE1K8BglCtXKg-24">
          <mxGeometry relative="1" as="geometry" />
        </mxCell>
        <mxCell id="rUDEp83lE1K8BglCtXKg-15" value="&lt;b style=&quot;font-family: &amp;#34;times new roman&amp;#34; ; font-size: 16px&quot;&gt;&lt;font style=&quot;font-size: 16px&quot;&gt;X&lt;/font&gt;&lt;sub&gt;&lt;font style=&quot;font-size: 16px&quot;&gt;1&lt;/font&gt;&lt;/sub&gt;&lt;/b&gt;" style="rounded=0;whiteSpace=wrap;html=1;" vertex="1" parent="1">
          <mxGeometry x="-1440" y="-140" width="40" height="40" as="geometry" />
        </mxCell>
        <mxCell id="rUDEp83lE1K8BglCtXKg-20" value="&lt;b style=&quot;font-size: 16px&quot;&gt;&lt;font face=&quot;Times New Roman&quot; style=&quot;font-size: 16px&quot;&gt;&lt;i&gt;&lt;font style=&quot;font-size: 16px&quot;&gt;h&lt;/font&gt;&lt;/i&gt;&lt;sub&gt;&lt;font style=&quot;font-size: 16px&quot;&gt;2&lt;/font&gt;&lt;/sub&gt;&lt;/font&gt;&lt;/b&gt;" style="rounded=0;whiteSpace=wrap;html=1;" vertex="1" parent="1">
          <mxGeometry x="-960" y="-40" width="40" height="40" as="geometry" />
        </mxCell>
        <mxCell id="rUDEp83lE1K8BglCtXKg-61" style="edgeStyle=none;rounded=0;orthogonalLoop=1;jettySize=auto;html=1;exitX=1;exitY=0.5;exitDx=0;exitDy=0;entryX=0;entryY=0.5;entryDx=0;entryDy=0;strokeWidth=2;" edge="1" parent="1" source="rUDEp83lE1K8BglCtXKg-21" target="rUDEp83lE1K8BglCtXKg-20">
          <mxGeometry relative="1" as="geometry" />
        </mxCell>
        <mxCell id="rUDEp83lE1K8BglCtXKg-21" value="&lt;b style=&quot;font-size: 16px&quot;&gt;&lt;font face=&quot;Times New Roman&quot; style=&quot;font-size: 16px&quot;&gt;&lt;i&gt;&lt;font style=&quot;font-size: 16px&quot;&gt;h&lt;/font&gt;&lt;/i&gt;&lt;sub&gt;&lt;font style=&quot;font-size: 16px&quot;&gt;2&lt;/font&gt;&lt;/sub&gt;&lt;/font&gt;&lt;/b&gt;" style="rounded=0;whiteSpace=wrap;html=1;" vertex="1" parent="1">
          <mxGeometry x="-1080" y="-40" width="40" height="40" as="geometry" />
        </mxCell>
        <mxCell id="rUDEp83lE1K8BglCtXKg-58" style="edgeStyle=none;rounded=0;orthogonalLoop=1;jettySize=auto;html=1;exitX=1;exitY=0.5;exitDx=0;exitDy=0;entryX=0;entryY=0.5;entryDx=0;entryDy=0;strokeWidth=2;" edge="1" parent="1" source="rUDEp83lE1K8BglCtXKg-22" target="rUDEp83lE1K8BglCtXKg-23">
          <mxGeometry relative="1" as="geometry" />
        </mxCell>
        <mxCell id="rUDEp83lE1K8BglCtXKg-22" value="&lt;b style=&quot;font-size: 16px&quot;&gt;&lt;font face=&quot;Times New Roman&quot; style=&quot;font-size: 16px&quot;&gt;&lt;i&gt;&lt;font style=&quot;font-size: 16px&quot;&gt;h&lt;/font&gt;&lt;/i&gt;&lt;sub&gt;&lt;font style=&quot;font-size: 16px&quot;&gt;2&lt;/font&gt;&lt;/sub&gt;&lt;/font&gt;&lt;/b&gt;" style="rounded=0;whiteSpace=wrap;html=1;" vertex="1" parent="1">
          <mxGeometry x="-1320" y="-40" width="40" height="40" as="geometry" />
        </mxCell>
        <mxCell id="rUDEp83lE1K8BglCtXKg-59" style="edgeStyle=none;rounded=0;orthogonalLoop=1;jettySize=auto;html=1;exitX=1;exitY=0.5;exitDx=0;exitDy=0;entryX=0;entryY=0.5;entryDx=0;entryDy=0;strokeWidth=2;" edge="1" parent="1" source="rUDEp83lE1K8BglCtXKg-23" target="rUDEp83lE1K8BglCtXKg-21">
          <mxGeometry relative="1" as="geometry" />
        </mxCell>
        <mxCell id="rUDEp83lE1K8BglCtXKg-23" value="&lt;b style=&quot;font-size: 16px&quot;&gt;&lt;font face=&quot;Times New Roman&quot; style=&quot;font-size: 16px&quot;&gt;&lt;i&gt;&lt;font style=&quot;font-size: 16px&quot;&gt;h&lt;/font&gt;&lt;/i&gt;&lt;sub&gt;&lt;font style=&quot;font-size: 16px&quot;&gt;2&lt;/font&gt;&lt;/sub&gt;&lt;/font&gt;&lt;/b&gt;" style="rounded=0;whiteSpace=wrap;html=1;" vertex="1" parent="1">
          <mxGeometry x="-1200" y="-40" width="40" height="40" as="geometry" />
        </mxCell>
        <mxCell id="rUDEp83lE1K8BglCtXKg-57" style="edgeStyle=none;rounded=0;orthogonalLoop=1;jettySize=auto;html=1;exitX=1;exitY=0.5;exitDx=0;exitDy=0;entryX=0;entryY=0.5;entryDx=0;entryDy=0;strokeWidth=2;" edge="1" parent="1" source="rUDEp83lE1K8BglCtXKg-24" target="rUDEp83lE1K8BglCtXKg-22">
          <mxGeometry relative="1" as="geometry" />
        </mxCell>
        <mxCell id="rUDEp83lE1K8BglCtXKg-24" value="&lt;b style=&quot;font-family: &amp;#34;times new roman&amp;#34; ; font-size: 16px&quot;&gt;&lt;i&gt;&lt;font style=&quot;font-size: 16px&quot;&gt;h&lt;/font&gt;&lt;/i&gt;&lt;sub&gt;&lt;font style=&quot;font-size: 16px&quot;&gt;1&lt;/font&gt;&lt;/sub&gt;&lt;/b&gt;" style="rounded=0;whiteSpace=wrap;html=1;" vertex="1" parent="1">
          <mxGeometry x="-1440" y="-40" width="40" height="40" as="geometry" />
        </mxCell>
        <mxCell id="rUDEp83lE1K8BglCtXKg-44" value="&lt;span style=&quot;color: rgb(0 , 0 , 0) ; font-style: normal ; letter-spacing: normal ; text-align: center ; text-indent: 0px ; text-transform: none ; word-spacing: 0px ; background-color: rgb(255 , 255 , 255)&quot;&gt;&lt;font face=&quot;宋体&quot; size=&quot;1&quot;&gt;&lt;b style=&quot;font-size: 16px&quot;&gt;冲账流水主机序号&lt;/b&gt;&lt;/font&gt;&lt;/span&gt;" style="text;whiteSpace=wrap;html=1;" vertex="1" parent="1">
          <mxGeometry x="-1252.5" y="-440" width="145" height="30" as="geometry" />
        </mxCell>
        <mxCell id="rUDEp83lE1K8BglCtXKg-46" value="" style="html=1;shadow=0;dashed=0;align=center;verticalAlign=middle;shape=mxgraph.arrows2.arrow;dy=0.63;dx=25.23;direction=south;notch=0;strokeWidth=2;" vertex="1" parent="1">
          <mxGeometry x="-1195" y="-400" width="30" height="60" as="geometry" />
        </mxCell>
        <mxCell id="rUDEp83lE1K8BglCtXKg-47" value="&lt;b style=&quot;color: rgb(0 , 0 , 0) ; font-style: normal ; letter-spacing: normal ; text-align: center ; text-indent: 0px ; text-transform: none ; word-spacing: 0px ; background-color: rgb(255 , 255 , 255) ; font-size: 16px&quot;&gt;分词&lt;/b&gt;" style="text;whiteSpace=wrap;html=1;" vertex="1" parent="1">
          <mxGeometry x="-850" y="-390" width="160" height="30" as="geometry" />
        </mxCell>
        <mxCell id="rUDEp83lE1K8BglCtXKg-48" value="&lt;b style=&quot;color: rgb(0 , 0 , 0) ; font-style: normal ; letter-spacing: normal ; text-align: center ; text-indent: 0px ; text-transform: none ; word-spacing: 0px ; background-color: rgb(255 , 255 , 255) ; font-size: 16px&quot;&gt;Word2vec&lt;/b&gt;" style="text;whiteSpace=wrap;html=1;" vertex="1" parent="1">
          <mxGeometry x="-850" y="-280" width="160" height="30" as="geometry" />
        </mxCell>
        <mxCell id="rUDEp83lE1K8BglCtXKg-49" value="&lt;b style=&quot;color: rgb(0 , 0 , 0) ; font-style: normal ; letter-spacing: normal ; text-align: center ; text-indent: 0px ; text-transform: none ; word-spacing: 0px ; background-color: rgb(255 , 255 , 255) ; font-size: 16px&quot;&gt;TF-IDF加权&lt;/b&gt;" style="text;whiteSpace=wrap;html=1;" vertex="1" parent="1">
          <mxGeometry x="-850" y="-190" width="160" height="30" as="geometry" />
        </mxCell>
        <mxCell id="rUDEp83lE1K8BglCtXKg-51" value="&lt;b style=&quot;color: rgb(0 , 0 , 0) ; font-style: normal ; letter-spacing: normal ; text-align: center ; text-indent: 0px ; text-transform: none ; word-spacing: 0px ; background-color: rgb(255 , 255 , 255) ; font-size: 16px&quot;&gt;LSTM&lt;/b&gt;" style="text;whiteSpace=wrap;html=1;" vertex="1" parent="1">
          <mxGeometry x="-850" y="-85" width="160" height="30" as="geometry" />
        </mxCell>
        <mxCell id="rUDEp83lE1K8BglCtXKg-56" value="" style="rounded=0;whiteSpace=wrap;html=1;fillColor=none;dashed=1;strokeWidth=2;opacity=60;" vertex="1" parent="1">
          <mxGeometry x="-1490" y="-160" width="620" height="180" as="geometry" />
        </mxCell>
      </root>
    </mxGraphModel>
  </diagram>
  <diagram id="sRdnrUpQi35nS8NunfuF" name="第 2 页">
    <mxGraphModel dx="2642" dy="920" grid="1" gridSize="10" guides="1" tooltips="1" connect="1" arrows="1" fold="1" page="0" pageScale="1" pageWidth="827" pageHeight="1169" math="0" shadow="0">
      <root>
        <mxCell id="NwX8Io1kYPteeoP_P1_u-0" />
        <mxCell id="NwX8Io1kYPteeoP_P1_u-1" parent="NwX8Io1kYPteeoP_P1_u-0" />
        <mxCell id="NwX8Io1kYPteeoP_P1_u-22" style="edgeStyle=none;rounded=0;orthogonalLoop=1;jettySize=auto;html=1;exitX=0.5;exitY=1;exitDx=0;exitDy=0;entryX=0.5;entryY=0;entryDx=0;entryDy=0;strokeWidth=2;" edge="1" parent="NwX8Io1kYPteeoP_P1_u-1" source="NwX8Io1kYPteeoP_P1_u-23" target="NwX8Io1kYPteeoP_P1_u-32">
          <mxGeometry relative="1" as="geometry" />
        </mxCell>
        <mxCell id="NwX8Io1kYPteeoP_P1_u-23" value="&lt;b style=&quot;font-family: &amp;#34;times new roman&amp;#34; ; font-size: 16px&quot;&gt;&lt;font style=&quot;font-size: 16px&quot;&gt;X&lt;/font&gt;&lt;sub&gt;&lt;font style=&quot;font-size: 16px&quot;&gt;2&lt;/font&gt;&lt;/sub&gt;&lt;/b&gt;" style="rounded=0;whiteSpace=wrap;html=1;" vertex="1" parent="NwX8Io1kYPteeoP_P1_u-1">
          <mxGeometry x="-960" y="-140" width="40" height="40" as="geometry" />
        </mxCell>
        <mxCell id="NwX8Io1kYPteeoP_P1_u-24" style="edgeStyle=none;rounded=0;orthogonalLoop=1;jettySize=auto;html=1;exitX=0.5;exitY=1;exitDx=0;exitDy=0;entryX=0.5;entryY=0;entryDx=0;entryDy=0;strokeWidth=2;" edge="1" parent="NwX8Io1kYPteeoP_P1_u-1" source="NwX8Io1kYPteeoP_P1_u-25" target="NwX8Io1kYPteeoP_P1_u-34">
          <mxGeometry relative="1" as="geometry" />
        </mxCell>
        <mxCell id="NwX8Io1kYPteeoP_P1_u-25" value="&lt;b style=&quot;font-family: &amp;#34;times new roman&amp;#34; ; font-size: 16px&quot;&gt;&lt;font style=&quot;font-size: 16px&quot;&gt;X&lt;/font&gt;&lt;sub&gt;&lt;font style=&quot;font-size: 16px&quot;&gt;2&lt;/font&gt;&lt;/sub&gt;&lt;/b&gt;" style="rounded=0;whiteSpace=wrap;html=1;" vertex="1" parent="NwX8Io1kYPteeoP_P1_u-1">
          <mxGeometry x="-1080" y="-140" width="40" height="40" as="geometry" />
        </mxCell>
        <mxCell id="NwX8Io1kYPteeoP_P1_u-26" style="edgeStyle=none;rounded=0;orthogonalLoop=1;jettySize=auto;html=1;exitX=0.5;exitY=1;exitDx=0;exitDy=0;strokeWidth=2;" edge="1" parent="NwX8Io1kYPteeoP_P1_u-1" source="NwX8Io1kYPteeoP_P1_u-27" target="NwX8Io1kYPteeoP_P1_u-36">
          <mxGeometry relative="1" as="geometry" />
        </mxCell>
        <mxCell id="NwX8Io1kYPteeoP_P1_u-27" value="&lt;b style=&quot;font-family: &amp;#34;times new roman&amp;#34; ; font-size: 16px&quot;&gt;&lt;font style=&quot;font-size: 16px&quot;&gt;X&lt;/font&gt;&lt;sub&gt;&lt;font style=&quot;font-size: 16px&quot;&gt;2&lt;/font&gt;&lt;/sub&gt;&lt;/b&gt;" style="rounded=0;whiteSpace=wrap;html=1;" vertex="1" parent="NwX8Io1kYPteeoP_P1_u-1">
          <mxGeometry x="-1320" y="-140" width="40" height="40" as="geometry" />
        </mxCell>
        <mxCell id="NwX8Io1kYPteeoP_P1_u-28" style="edgeStyle=none;rounded=0;orthogonalLoop=1;jettySize=auto;html=1;exitX=0.5;exitY=1;exitDx=0;exitDy=0;strokeWidth=2;" edge="1" parent="NwX8Io1kYPteeoP_P1_u-1" source="NwX8Io1kYPteeoP_P1_u-29" target="NwX8Io1kYPteeoP_P1_u-38">
          <mxGeometry relative="1" as="geometry" />
        </mxCell>
        <mxCell id="NwX8Io1kYPteeoP_P1_u-29" value="&lt;b style=&quot;font-family: &amp;#34;times new roman&amp;#34; ; font-size: 16px&quot;&gt;&lt;font style=&quot;font-size: 16px&quot;&gt;X&lt;/font&gt;&lt;sub&gt;&lt;font style=&quot;font-size: 16px&quot;&gt;2&lt;/font&gt;&lt;/sub&gt;&lt;/b&gt;" style="rounded=0;whiteSpace=wrap;html=1;" vertex="1" parent="NwX8Io1kYPteeoP_P1_u-1">
          <mxGeometry x="-1200" y="-140" width="40" height="40" as="geometry" />
        </mxCell>
        <mxCell id="NwX8Io1kYPteeoP_P1_u-30" style="edgeStyle=none;rounded=0;orthogonalLoop=1;jettySize=auto;html=1;exitX=0.5;exitY=1;exitDx=0;exitDy=0;entryX=0.5;entryY=0;entryDx=0;entryDy=0;strokeWidth=2;" edge="1" parent="NwX8Io1kYPteeoP_P1_u-1" source="NwX8Io1kYPteeoP_P1_u-31" target="NwX8Io1kYPteeoP_P1_u-40">
          <mxGeometry relative="1" as="geometry" />
        </mxCell>
        <mxCell id="NwX8Io1kYPteeoP_P1_u-31" value="&lt;b style=&quot;font-family: &amp;#34;times new roman&amp;#34; ; font-size: 16px&quot;&gt;&lt;font style=&quot;font-size: 16px&quot;&gt;X&lt;/font&gt;&lt;sub&gt;&lt;font style=&quot;font-size: 16px&quot;&gt;1&lt;/font&gt;&lt;/sub&gt;&lt;/b&gt;" style="rounded=0;whiteSpace=wrap;html=1;" vertex="1" parent="NwX8Io1kYPteeoP_P1_u-1">
          <mxGeometry x="-1440" y="-140" width="40" height="40" as="geometry" />
        </mxCell>
        <mxCell id="NwX8Io1kYPteeoP_P1_u-56" style="edgeStyle=orthogonalEdgeStyle;rounded=0;orthogonalLoop=1;jettySize=auto;html=1;exitX=0.5;exitY=1;exitDx=0;exitDy=0;entryX=0.5;entryY=0;entryDx=0;entryDy=0;strokeWidth=2;" edge="1" parent="NwX8Io1kYPteeoP_P1_u-1" source="NwX8Io1kYPteeoP_P1_u-32" target="NwX8Io1kYPteeoP_P1_u-51">
          <mxGeometry relative="1" as="geometry" />
        </mxCell>
        <mxCell id="NwX8Io1kYPteeoP_P1_u-32" value="&lt;b style=&quot;font-size: 16px&quot;&gt;&lt;font face=&quot;Times New Roman&quot; style=&quot;font-size: 16px&quot;&gt;&lt;i&gt;&lt;font style=&quot;font-size: 16px&quot;&gt;h&lt;/font&gt;&lt;/i&gt;&lt;sub&gt;&lt;font style=&quot;font-size: 16px&quot;&gt;2&lt;/font&gt;&lt;/sub&gt;&lt;/font&gt;&lt;/b&gt;" style="rounded=0;whiteSpace=wrap;html=1;" vertex="1" parent="NwX8Io1kYPteeoP_P1_u-1">
          <mxGeometry x="-960" y="-40" width="40" height="40" as="geometry" />
        </mxCell>
        <mxCell id="NwX8Io1kYPteeoP_P1_u-33" style="edgeStyle=none;rounded=0;orthogonalLoop=1;jettySize=auto;html=1;exitX=1;exitY=0.5;exitDx=0;exitDy=0;entryX=0;entryY=0.5;entryDx=0;entryDy=0;strokeWidth=2;" edge="1" parent="NwX8Io1kYPteeoP_P1_u-1" source="NwX8Io1kYPteeoP_P1_u-34" target="NwX8Io1kYPteeoP_P1_u-32">
          <mxGeometry relative="1" as="geometry" />
        </mxCell>
        <mxCell id="NwX8Io1kYPteeoP_P1_u-55" style="edgeStyle=orthogonalEdgeStyle;rounded=0;orthogonalLoop=1;jettySize=auto;html=1;exitX=0.5;exitY=1;exitDx=0;exitDy=0;entryX=0.5;entryY=0;entryDx=0;entryDy=0;strokeWidth=2;" edge="1" parent="NwX8Io1kYPteeoP_P1_u-1" source="NwX8Io1kYPteeoP_P1_u-34" target="NwX8Io1kYPteeoP_P1_u-51">
          <mxGeometry relative="1" as="geometry" />
        </mxCell>
        <mxCell id="NwX8Io1kYPteeoP_P1_u-34" value="&lt;b style=&quot;font-size: 16px&quot;&gt;&lt;font face=&quot;Times New Roman&quot; style=&quot;font-size: 16px&quot;&gt;&lt;i&gt;&lt;font style=&quot;font-size: 16px&quot;&gt;h&lt;/font&gt;&lt;/i&gt;&lt;sub&gt;&lt;font style=&quot;font-size: 16px&quot;&gt;2&lt;/font&gt;&lt;/sub&gt;&lt;/font&gt;&lt;/b&gt;" style="rounded=0;whiteSpace=wrap;html=1;" vertex="1" parent="NwX8Io1kYPteeoP_P1_u-1">
          <mxGeometry x="-1080" y="-40" width="40" height="40" as="geometry" />
        </mxCell>
        <mxCell id="NwX8Io1kYPteeoP_P1_u-35" style="edgeStyle=none;rounded=0;orthogonalLoop=1;jettySize=auto;html=1;exitX=1;exitY=0.5;exitDx=0;exitDy=0;entryX=0;entryY=0.5;entryDx=0;entryDy=0;strokeWidth=2;" edge="1" parent="NwX8Io1kYPteeoP_P1_u-1" source="NwX8Io1kYPteeoP_P1_u-36" target="NwX8Io1kYPteeoP_P1_u-38">
          <mxGeometry relative="1" as="geometry" />
        </mxCell>
        <mxCell id="NwX8Io1kYPteeoP_P1_u-54" style="edgeStyle=orthogonalEdgeStyle;rounded=0;orthogonalLoop=1;jettySize=auto;html=1;exitX=0.5;exitY=1;exitDx=0;exitDy=0;entryX=0.5;entryY=0;entryDx=0;entryDy=0;strokeWidth=2;" edge="1" parent="NwX8Io1kYPteeoP_P1_u-1" source="NwX8Io1kYPteeoP_P1_u-36" target="NwX8Io1kYPteeoP_P1_u-51">
          <mxGeometry relative="1" as="geometry" />
        </mxCell>
        <mxCell id="NwX8Io1kYPteeoP_P1_u-36" value="&lt;b style=&quot;font-size: 16px&quot;&gt;&lt;font face=&quot;Times New Roman&quot; style=&quot;font-size: 16px&quot;&gt;&lt;i&gt;&lt;font style=&quot;font-size: 16px&quot;&gt;h&lt;/font&gt;&lt;/i&gt;&lt;sub&gt;&lt;font style=&quot;font-size: 16px&quot;&gt;2&lt;/font&gt;&lt;/sub&gt;&lt;/font&gt;&lt;/b&gt;" style="rounded=0;whiteSpace=wrap;html=1;" vertex="1" parent="NwX8Io1kYPteeoP_P1_u-1">
          <mxGeometry x="-1320" y="-40" width="40" height="40" as="geometry" />
        </mxCell>
        <mxCell id="NwX8Io1kYPteeoP_P1_u-37" style="edgeStyle=none;rounded=0;orthogonalLoop=1;jettySize=auto;html=1;exitX=1;exitY=0.5;exitDx=0;exitDy=0;entryX=0;entryY=0.5;entryDx=0;entryDy=0;strokeWidth=2;" edge="1" parent="NwX8Io1kYPteeoP_P1_u-1" source="NwX8Io1kYPteeoP_P1_u-38" target="NwX8Io1kYPteeoP_P1_u-34">
          <mxGeometry relative="1" as="geometry" />
        </mxCell>
        <mxCell id="NwX8Io1kYPteeoP_P1_u-52" value="" style="edgeStyle=orthogonalEdgeStyle;rounded=0;orthogonalLoop=1;jettySize=auto;html=1;strokeWidth=2;" edge="1" parent="NwX8Io1kYPteeoP_P1_u-1" source="NwX8Io1kYPteeoP_P1_u-38" target="NwX8Io1kYPteeoP_P1_u-51">
          <mxGeometry relative="1" as="geometry" />
        </mxCell>
        <mxCell id="NwX8Io1kYPteeoP_P1_u-38" value="&lt;b style=&quot;font-size: 16px&quot;&gt;&lt;font face=&quot;Times New Roman&quot; style=&quot;font-size: 16px&quot;&gt;&lt;i&gt;&lt;font style=&quot;font-size: 16px&quot;&gt;h&lt;/font&gt;&lt;/i&gt;&lt;sub&gt;&lt;font style=&quot;font-size: 16px&quot;&gt;2&lt;/font&gt;&lt;/sub&gt;&lt;/font&gt;&lt;/b&gt;" style="rounded=0;whiteSpace=wrap;html=1;" vertex="1" parent="NwX8Io1kYPteeoP_P1_u-1">
          <mxGeometry x="-1200" y="-40" width="40" height="40" as="geometry" />
        </mxCell>
        <mxCell id="NwX8Io1kYPteeoP_P1_u-39" style="edgeStyle=none;rounded=0;orthogonalLoop=1;jettySize=auto;html=1;exitX=1;exitY=0.5;exitDx=0;exitDy=0;entryX=0;entryY=0.5;entryDx=0;entryDy=0;strokeWidth=2;" edge="1" parent="NwX8Io1kYPteeoP_P1_u-1" source="NwX8Io1kYPteeoP_P1_u-40" target="NwX8Io1kYPteeoP_P1_u-36">
          <mxGeometry relative="1" as="geometry" />
        </mxCell>
        <mxCell id="NwX8Io1kYPteeoP_P1_u-53" style="edgeStyle=orthogonalEdgeStyle;rounded=0;orthogonalLoop=1;jettySize=auto;html=1;exitX=0.5;exitY=1;exitDx=0;exitDy=0;entryX=0.5;entryY=0;entryDx=0;entryDy=0;strokeWidth=2;" edge="1" parent="NwX8Io1kYPteeoP_P1_u-1" source="NwX8Io1kYPteeoP_P1_u-40" target="NwX8Io1kYPteeoP_P1_u-51">
          <mxGeometry relative="1" as="geometry" />
        </mxCell>
        <mxCell id="NwX8Io1kYPteeoP_P1_u-40" value="&lt;b style=&quot;font-family: &amp;#34;times new roman&amp;#34; ; font-size: 16px&quot;&gt;&lt;i&gt;&lt;font style=&quot;font-size: 16px&quot;&gt;h&lt;/font&gt;&lt;/i&gt;&lt;sub&gt;&lt;font style=&quot;font-size: 16px&quot;&gt;1&lt;/font&gt;&lt;/sub&gt;&lt;/b&gt;" style="rounded=0;whiteSpace=wrap;html=1;" vertex="1" parent="NwX8Io1kYPteeoP_P1_u-1">
          <mxGeometry x="-1440" y="-40" width="40" height="40" as="geometry" />
        </mxCell>
        <mxCell id="NwX8Io1kYPteeoP_P1_u-57" style="edgeStyle=orthogonalEdgeStyle;rounded=0;orthogonalLoop=1;jettySize=auto;html=1;exitX=0.5;exitY=1;exitDx=0;exitDy=0;strokeWidth=2;" edge="1" parent="NwX8Io1kYPteeoP_P1_u-1" source="NwX8Io1kYPteeoP_P1_u-51">
          <mxGeometry relative="1" as="geometry">
            <mxPoint x="-1180" y="160" as="targetPoint" />
          </mxGeometry>
        </mxCell>
        <mxCell id="NwX8Io1kYPteeoP_P1_u-51" value="&lt;font face=&quot;Times New Roman&quot;&gt;&lt;span style=&quot;font-size: 16px&quot;&gt;&lt;b&gt;H&lt;/b&gt;&lt;/span&gt;&lt;/font&gt;" style="rounded=0;whiteSpace=wrap;html=1;" vertex="1" parent="NwX8Io1kYPteeoP_P1_u-1">
          <mxGeometry x="-1200" y="80" width="40" height="40" as="geometry" />
        </mxCell>
        <mxCell id="NwX8Io1kYPteeoP_P1_u-61" value="&lt;font style=&quot;font-size: 16px&quot; face=&quot;微软雅黑&quot;&gt;取平均&lt;/font&gt;" style="text;html=1;align=center;verticalAlign=middle;resizable=0;points=[];autosize=1;strokeColor=none;" vertex="1" parent="NwX8Io1kYPteeoP_P1_u-1">
          <mxGeometry x="-1040" y="50" width="60" height="20" as="geometry" />
        </mxCell>
      </root>
    </mxGraphModel>
  </diagram>
  <diagram id="SU1-ai6HkIFb1UEiedgt" name="第 3 页">
    <mxGraphModel dx="1621" dy="645" grid="1" gridSize="10" guides="1" tooltips="1" connect="1" arrows="1" fold="1" page="0" pageScale="1" pageWidth="827" pageHeight="1169" math="0" shadow="0">
      <root>
        <mxCell id="AkglLQtFJoY96tl48QzT-0" />
        <mxCell id="AkglLQtFJoY96tl48QzT-1" parent="AkglLQtFJoY96tl48QzT-0" />
        <mxCell id="AkglLQtFJoY96tl48QzT-24" style="edgeStyle=orthogonalEdgeStyle;orthogonalLoop=1;jettySize=auto;html=1;exitX=0.5;exitY=1;exitDx=0;exitDy=0;entryX=0.5;entryY=0;entryDx=0;entryDy=0;fontFamily=Times New Roman;fontSize=15;strokeWidth=2;rounded=0;" edge="1" parent="AkglLQtFJoY96tl48QzT-1" source="AkglLQtFJoY96tl48QzT-5" target="AkglLQtFJoY96tl48QzT-8">
          <mxGeometry relative="1" as="geometry" />
        </mxCell>
        <mxCell id="AkglLQtFJoY96tl48QzT-5" value="&lt;font style=&quot;font-size: 16px&quot; face=&quot;Helvetica&quot;&gt;文本a&lt;/font&gt;" style="rounded=1;whiteSpace=wrap;html=1;strokeWidth=2;glass=0;shadow=0;sketch=0;fontStyle=1;fontFamily=Times New Roman;labelBackgroundColor=none;fillColor=none;fontSize=15;labelBorderColor=none;" vertex="1" parent="AkglLQtFJoY96tl48QzT-1">
          <mxGeometry x="40" y="110" width="80" height="40" as="geometry" />
        </mxCell>
        <mxCell id="AkglLQtFJoY96tl48QzT-25" value="" style="edgeStyle=orthogonalEdgeStyle;rounded=0;orthogonalLoop=1;jettySize=auto;html=1;fontFamily=Times New Roman;fontSize=15;fontColor=#000000;strokeColor=#000000;strokeWidth=2;" edge="1" parent="AkglLQtFJoY96tl48QzT-1" source="AkglLQtFJoY96tl48QzT-7" target="AkglLQtFJoY96tl48QzT-13">
          <mxGeometry relative="1" as="geometry" />
        </mxCell>
        <mxCell id="AkglLQtFJoY96tl48QzT-7" value="&lt;span style=&quot;font-size: 16px ; font-weight: 700&quot;&gt;文本b&lt;/span&gt;" style="rounded=1;whiteSpace=wrap;html=1;strokeWidth=2;glass=0;labelBorderColor=none;fillColor=none;" vertex="1" parent="AkglLQtFJoY96tl48QzT-1">
          <mxGeometry x="270" y="110" width="80" height="40" as="geometry" />
        </mxCell>
        <mxCell id="AkglLQtFJoY96tl48QzT-30" style="edgeStyle=orthogonalEdgeStyle;rounded=0;orthogonalLoop=1;jettySize=auto;html=1;exitX=0.5;exitY=1;exitDx=0;exitDy=0;entryX=0.5;entryY=0;entryDx=0;entryDy=0;fontFamily=Times New Roman;fontSize=15;fontColor=#000000;strokeColor=#000000;strokeWidth=2;" edge="1" parent="AkglLQtFJoY96tl48QzT-1" source="AkglLQtFJoY96tl48QzT-8" target="AkglLQtFJoY96tl48QzT-9">
          <mxGeometry relative="1" as="geometry" />
        </mxCell>
        <mxCell id="AkglLQtFJoY96tl48QzT-8" value="W&lt;sub&gt;1&lt;/sub&gt;，W&lt;sub&gt;2&lt;/sub&gt;，...，W&lt;sub&gt;n&lt;/sub&gt;" style="rounded=0;whiteSpace=wrap;html=1;strokeWidth=2;fontStyle=1;fontFamily=Times New Roman;labelBackgroundColor=none;fillColor=none;fontSize=15;" vertex="1" parent="AkglLQtFJoY96tl48QzT-1">
          <mxGeometry x="15" y="180" width="130" height="40" as="geometry" />
        </mxCell>
        <mxCell id="AkglLQtFJoY96tl48QzT-31" style="edgeStyle=orthogonalEdgeStyle;rounded=0;orthogonalLoop=1;jettySize=auto;html=1;exitX=0.5;exitY=1;exitDx=0;exitDy=0;entryX=0.5;entryY=0;entryDx=0;entryDy=0;fontFamily=Times New Roman;fontSize=15;fontColor=#000000;strokeColor=#000000;strokeWidth=2;" edge="1" parent="AkglLQtFJoY96tl48QzT-1" source="AkglLQtFJoY96tl48QzT-9" target="AkglLQtFJoY96tl48QzT-11">
          <mxGeometry relative="1" as="geometry" />
        </mxCell>
        <mxCell id="AkglLQtFJoY96tl48QzT-9" value="V&lt;sub&gt;1&lt;/sub&gt;，V&lt;sub&gt;2&lt;/sub&gt;，...，V&lt;sub&gt;n&lt;/sub&gt;" style="rounded=0;whiteSpace=wrap;html=1;strokeWidth=2;fontStyle=1;fontFamily=Times New Roman;labelBackgroundColor=none;fillColor=none;fontSize=15;" vertex="1" parent="AkglLQtFJoY96tl48QzT-1">
          <mxGeometry x="15" y="250" width="130" height="40" as="geometry" />
        </mxCell>
        <mxCell id="AkglLQtFJoY96tl48QzT-28" style="edgeStyle=orthogonalEdgeStyle;rounded=0;orthogonalLoop=1;jettySize=auto;html=1;exitX=0.5;exitY=1;exitDx=0;exitDy=0;entryX=0.5;entryY=0;entryDx=0;entryDy=0;fontFamily=Times New Roman;fontSize=15;fontColor=#000000;strokeColor=#000000;strokeWidth=2;" edge="1" parent="AkglLQtFJoY96tl48QzT-1" source="AkglLQtFJoY96tl48QzT-10" target="AkglLQtFJoY96tl48QzT-12">
          <mxGeometry relative="1" as="geometry" />
        </mxCell>
        <mxCell id="AkglLQtFJoY96tl48QzT-10" value="&lt;span style=&quot;font-family: &amp;#34;times new roman&amp;#34; ; font-size: 15px ; font-weight: 700&quot;&gt;V&lt;/span&gt;&lt;sub style=&quot;font-family: &amp;#34;times new roman&amp;#34; ; font-weight: 700&quot;&gt;1&lt;/sub&gt;&lt;span style=&quot;font-family: &amp;#34;times new roman&amp;#34; ; font-size: 15px ; font-weight: 700&quot;&gt;，V&lt;/span&gt;&lt;sub style=&quot;font-family: &amp;#34;times new roman&amp;#34; ; font-weight: 700&quot;&gt;2&lt;/sub&gt;&lt;span style=&quot;font-family: &amp;#34;times new roman&amp;#34; ; font-size: 15px ; font-weight: 700&quot;&gt;，...，V&lt;/span&gt;&lt;sub style=&quot;font-family: &amp;#34;times new roman&amp;#34; ; font-weight: 700&quot;&gt;m&lt;/sub&gt;" style="rounded=0;whiteSpace=wrap;html=1;strokeWidth=2;fillColor=none;" vertex="1" parent="AkglLQtFJoY96tl48QzT-1">
          <mxGeometry x="245" y="250" width="130" height="40" as="geometry" />
        </mxCell>
        <mxCell id="AkglLQtFJoY96tl48QzT-32" style="edgeStyle=orthogonalEdgeStyle;rounded=0;orthogonalLoop=1;jettySize=auto;html=1;exitX=0.5;exitY=1;exitDx=0;exitDy=0;fontFamily=Times New Roman;fontSize=15;fontColor=#000000;strokeColor=#000000;strokeWidth=2;" edge="1" parent="AkglLQtFJoY96tl48QzT-1" source="AkglLQtFJoY96tl48QzT-11" target="AkglLQtFJoY96tl48QzT-15">
          <mxGeometry relative="1" as="geometry" />
        </mxCell>
        <mxCell id="AkglLQtFJoY96tl48QzT-11" value="X&lt;sub&gt;1&lt;/sub&gt;，...，X&lt;sub&gt;n&lt;/sub&gt;，..." style="rounded=0;whiteSpace=wrap;html=1;strokeWidth=2;fontStyle=1;fontFamily=Times New Roman;labelBackgroundColor=none;fillColor=none;fontSize=15;" vertex="1" parent="AkglLQtFJoY96tl48QzT-1">
          <mxGeometry x="15" y="320" width="130" height="40" as="geometry" />
        </mxCell>
        <mxCell id="AkglLQtFJoY96tl48QzT-29" style="edgeStyle=orthogonalEdgeStyle;rounded=0;orthogonalLoop=1;jettySize=auto;html=1;exitX=0.5;exitY=1;exitDx=0;exitDy=0;entryX=0.5;entryY=0;entryDx=0;entryDy=0;fontFamily=Times New Roman;fontSize=15;fontColor=#000000;strokeColor=#000000;strokeWidth=2;" edge="1" parent="AkglLQtFJoY96tl48QzT-1" source="AkglLQtFJoY96tl48QzT-12" target="AkglLQtFJoY96tl48QzT-17">
          <mxGeometry relative="1" as="geometry" />
        </mxCell>
        <mxCell id="AkglLQtFJoY96tl48QzT-12" value="&lt;span style=&quot;font-family: &amp;#34;times new roman&amp;#34; ; font-size: 15px ; font-weight: 700&quot;&gt;X&lt;/span&gt;&lt;sub style=&quot;font-family: &amp;#34;times new roman&amp;#34; ; font-weight: 700&quot;&gt;1&lt;/sub&gt;&lt;span style=&quot;font-family: &amp;#34;times new roman&amp;#34; ; font-size: 15px ; font-weight: 700&quot;&gt;，...，X&lt;/span&gt;&lt;sub style=&quot;font-family: &amp;#34;times new roman&amp;#34; ; font-weight: 700&quot;&gt;m&lt;/sub&gt;&lt;span style=&quot;font-family: &amp;#34;times new roman&amp;#34; ; font-size: 15px ; font-weight: 700&quot;&gt;，...&lt;/span&gt;" style="rounded=0;whiteSpace=wrap;html=1;strokeWidth=2;fillColor=none;" vertex="1" parent="AkglLQtFJoY96tl48QzT-1">
          <mxGeometry x="245" y="320" width="130" height="40" as="geometry" />
        </mxCell>
        <mxCell id="AkglLQtFJoY96tl48QzT-27" style="edgeStyle=orthogonalEdgeStyle;rounded=0;orthogonalLoop=1;jettySize=auto;html=1;exitX=0.5;exitY=1;exitDx=0;exitDy=0;entryX=0.5;entryY=0;entryDx=0;entryDy=0;fontFamily=Times New Roman;fontSize=15;fontColor=#000000;strokeColor=#000000;strokeWidth=2;" edge="1" parent="AkglLQtFJoY96tl48QzT-1" source="AkglLQtFJoY96tl48QzT-13" target="AkglLQtFJoY96tl48QzT-10">
          <mxGeometry relative="1" as="geometry" />
        </mxCell>
        <mxCell id="AkglLQtFJoY96tl48QzT-13" value="&lt;span style=&quot;font-family: &amp;#34;times new roman&amp;#34; ; font-size: 15px ; font-weight: 700&quot;&gt;W&lt;/span&gt;&lt;sub style=&quot;font-family: &amp;#34;times new roman&amp;#34; ; font-weight: 700&quot;&gt;1&lt;/sub&gt;&lt;span style=&quot;font-family: &amp;#34;times new roman&amp;#34; ; font-size: 15px ; font-weight: 700&quot;&gt;，W&lt;/span&gt;&lt;sub style=&quot;font-family: &amp;#34;times new roman&amp;#34; ; font-weight: 700&quot;&gt;2&lt;/sub&gt;&lt;span style=&quot;font-family: &amp;#34;times new roman&amp;#34; ; font-size: 15px ; font-weight: 700&quot;&gt;，...，W&lt;/span&gt;&lt;sub style=&quot;font-family: &amp;#34;times new roman&amp;#34; ; font-weight: 700&quot;&gt;m&lt;/sub&gt;" style="rounded=0;whiteSpace=wrap;html=1;strokeWidth=2;fillColor=none;" vertex="1" parent="AkglLQtFJoY96tl48QzT-1">
          <mxGeometry x="245" y="180" width="130" height="40" as="geometry" />
        </mxCell>
        <mxCell id="AkglLQtFJoY96tl48QzT-33" style="edgeStyle=orthogonalEdgeStyle;rounded=0;orthogonalLoop=1;jettySize=auto;html=1;exitX=0.5;exitY=1;exitDx=0;exitDy=0;entryX=0.5;entryY=0;entryDx=0;entryDy=0;fontFamily=Times New Roman;fontSize=15;fontColor=#000000;strokeColor=#000000;strokeWidth=2;" edge="1" parent="AkglLQtFJoY96tl48QzT-1" source="AkglLQtFJoY96tl48QzT-15" target="AkglLQtFJoY96tl48QzT-18">
          <mxGeometry relative="1" as="geometry" />
        </mxCell>
        <mxCell id="AkglLQtFJoY96tl48QzT-15" value="LSTM" style="rounded=0;whiteSpace=wrap;html=1;strokeWidth=2;fontStyle=1;fontFamily=Times New Roman;labelBackgroundColor=none;fillColor=none;fontSize=15;" vertex="1" parent="AkglLQtFJoY96tl48QzT-1">
          <mxGeometry x="40" y="422" width="80" height="40" as="geometry" />
        </mxCell>
        <mxCell id="AkglLQtFJoY96tl48QzT-34" style="edgeStyle=orthogonalEdgeStyle;rounded=0;orthogonalLoop=1;jettySize=auto;html=1;exitX=0.5;exitY=1;exitDx=0;exitDy=0;fontFamily=Times New Roman;fontSize=15;fontColor=#000000;strokeColor=#000000;strokeWidth=2;" edge="1" parent="AkglLQtFJoY96tl48QzT-1" source="AkglLQtFJoY96tl48QzT-17" target="AkglLQtFJoY96tl48QzT-19">
          <mxGeometry relative="1" as="geometry" />
        </mxCell>
        <mxCell id="AkglLQtFJoY96tl48QzT-17" value="&lt;span style=&quot;font-family: &amp;#34;times new roman&amp;#34; ; font-size: 15px ; font-weight: 700&quot;&gt;LSTM&lt;/span&gt;" style="rounded=0;whiteSpace=wrap;html=1;strokeWidth=2;fillColor=none;" vertex="1" parent="AkglLQtFJoY96tl48QzT-1">
          <mxGeometry x="270" y="422" width="80" height="40" as="geometry" />
        </mxCell>
        <mxCell id="AkglLQtFJoY96tl48QzT-35" style="edgeStyle=orthogonalEdgeStyle;rounded=0;orthogonalLoop=1;jettySize=auto;html=1;exitX=0.5;exitY=1;exitDx=0;exitDy=0;entryX=0.5;entryY=0;entryDx=0;entryDy=0;fontFamily=Times New Roman;fontSize=15;fontColor=#000000;strokeColor=#000000;strokeWidth=2;" edge="1" parent="AkglLQtFJoY96tl48QzT-1" source="AkglLQtFJoY96tl48QzT-18" target="AkglLQtFJoY96tl48QzT-20">
          <mxGeometry relative="1" as="geometry" />
        </mxCell>
        <mxCell id="AkglLQtFJoY96tl48QzT-18" value="&lt;font style=&quot;font-size: 16px&quot; face=&quot;Helvetica&quot;&gt;全连接层&lt;/font&gt;" style="rounded=0;whiteSpace=wrap;html=1;strokeWidth=2;fontStyle=1;fontFamily=Times New Roman;labelBackgroundColor=none;fillColor=none;fontSize=15;" vertex="1" parent="AkglLQtFJoY96tl48QzT-1">
          <mxGeometry x="15" y="492" width="130" height="40" as="geometry" />
        </mxCell>
        <mxCell id="AkglLQtFJoY96tl48QzT-36" style="edgeStyle=orthogonalEdgeStyle;rounded=0;orthogonalLoop=1;jettySize=auto;html=1;exitX=0.5;exitY=1;exitDx=0;exitDy=0;entryX=0.5;entryY=0;entryDx=0;entryDy=0;fontFamily=Times New Roman;fontSize=15;fontColor=#000000;strokeColor=#000000;strokeWidth=2;" edge="1" parent="AkglLQtFJoY96tl48QzT-1" source="AkglLQtFJoY96tl48QzT-19" target="AkglLQtFJoY96tl48QzT-21">
          <mxGeometry relative="1" as="geometry" />
        </mxCell>
        <mxCell id="AkglLQtFJoY96tl48QzT-19" value="&lt;span style=&quot;font-size: 16px ; font-weight: 700&quot;&gt;全连接层&lt;/span&gt;" style="rounded=0;whiteSpace=wrap;html=1;strokeWidth=2;fillColor=none;" vertex="1" parent="AkglLQtFJoY96tl48QzT-1">
          <mxGeometry x="245" y="492" width="130" height="40" as="geometry" />
        </mxCell>
        <mxCell id="AkglLQtFJoY96tl48QzT-38" style="edgeStyle=orthogonalEdgeStyle;rounded=0;orthogonalLoop=1;jettySize=auto;html=1;exitX=0.5;exitY=1;exitDx=0;exitDy=0;fontFamily=Times New Roman;fontSize=15;fontColor=#000000;strokeColor=#000000;strokeWidth=2;" edge="1" parent="AkglLQtFJoY96tl48QzT-1" source="AkglLQtFJoY96tl48QzT-20" target="AkglLQtFJoY96tl48QzT-22">
          <mxGeometry relative="1" as="geometry" />
        </mxCell>
        <mxCell id="AkglLQtFJoY96tl48QzT-20" value="X&lt;sub&gt;a&lt;/sub&gt;" style="rounded=0;whiteSpace=wrap;html=1;strokeWidth=2;fontStyle=1;fontFamily=Times New Roman;labelBackgroundColor=none;fillColor=none;fontSize=15;" vertex="1" parent="AkglLQtFJoY96tl48QzT-1">
          <mxGeometry x="15" y="562" width="130" height="40" as="geometry" />
        </mxCell>
        <mxCell id="AkglLQtFJoY96tl48QzT-37" style="edgeStyle=orthogonalEdgeStyle;rounded=0;orthogonalLoop=1;jettySize=auto;html=1;exitX=0.5;exitY=1;exitDx=0;exitDy=0;entryX=0.5;entryY=0;entryDx=0;entryDy=0;fontFamily=Times New Roman;fontSize=15;fontColor=#000000;strokeColor=#000000;strokeWidth=2;" edge="1" parent="AkglLQtFJoY96tl48QzT-1" source="AkglLQtFJoY96tl48QzT-21" target="AkglLQtFJoY96tl48QzT-22">
          <mxGeometry relative="1" as="geometry" />
        </mxCell>
        <mxCell id="AkglLQtFJoY96tl48QzT-21" value="&lt;span style=&quot;font-family: &amp;#34;times new roman&amp;#34; ; font-size: 15px ; font-weight: 700&quot;&gt;X&lt;/span&gt;&lt;sub style=&quot;font-family: &amp;#34;times new roman&amp;#34; ; font-weight: 700&quot;&gt;b&lt;/sub&gt;" style="rounded=0;whiteSpace=wrap;html=1;strokeWidth=2;fillColor=none;" vertex="1" parent="AkglLQtFJoY96tl48QzT-1">
          <mxGeometry x="245" y="562" width="130" height="40" as="geometry" />
        </mxCell>
        <mxCell id="AkglLQtFJoY96tl48QzT-22" value="&lt;font style=&quot;font-size: 16px&quot;&gt;&lt;b&gt;相似度&lt;/b&gt;&lt;/font&gt;" style="rounded=1;whiteSpace=wrap;html=1;strokeWidth=2;fillColor=none;" vertex="1" parent="AkglLQtFJoY96tl48QzT-1">
          <mxGeometry x="155" y="670" width="80" height="40" as="geometry" />
        </mxCell>
        <mxCell id="AkglLQtFJoY96tl48QzT-39" value="&lt;font style=&quot;font-size: 16px&quot;&gt;&lt;b&gt;分词&lt;/b&gt;&lt;/font&gt;" style="text;html=1;align=center;verticalAlign=middle;resizable=0;points=[];autosize=1;strokeColor=none;fontSize=15;fontFamily=Times New Roman;fontColor=#000000;" vertex="1" parent="AkglLQtFJoY96tl48QzT-1">
          <mxGeometry x="170" y="190" width="50" height="20" as="geometry" />
        </mxCell>
        <mxCell id="AkglLQtFJoY96tl48QzT-40" value="&lt;font style=&quot;font-size: 16px&quot;&gt;&lt;b&gt;Word2vec&lt;/b&gt;&lt;/font&gt;" style="text;html=1;align=center;verticalAlign=middle;resizable=0;points=[];autosize=1;strokeColor=none;fontSize=15;fontFamily=Times New Roman;fontColor=#000000;" vertex="1" parent="AkglLQtFJoY96tl48QzT-1">
          <mxGeometry x="150" y="260" width="90" height="20" as="geometry" />
        </mxCell>
        <mxCell id="AkglLQtFJoY96tl48QzT-41" value="&lt;font style=&quot;font-size: 16px&quot;&gt;&lt;b&gt;TF-IDF&lt;/b&gt;&lt;/font&gt;" style="text;html=1;align=center;verticalAlign=middle;resizable=0;points=[];autosize=1;strokeColor=none;fontSize=15;fontFamily=Times New Roman;fontColor=#000000;" vertex="1" parent="AkglLQtFJoY96tl48QzT-1">
          <mxGeometry x="160" y="330" width="70" height="20" as="geometry" />
        </mxCell>
        <mxCell id="AkglLQtFJoY96tl48QzT-42" value="" style="rounded=0;whiteSpace=wrap;html=1;shadow=0;glass=0;labelBackgroundColor=none;sketch=0;fontFamily=Times New Roman;fontSize=15;fontColor=#000000;strokeColor=#000000;strokeWidth=2;fillColor=none;textOpacity=70;dashed=1;opacity=70;" vertex="1" parent="AkglLQtFJoY96tl48QzT-1">
          <mxGeometry x="-27.5" y="100" width="445" height="270" as="geometry" />
        </mxCell>
        <mxCell id="AkglLQtFJoY96tl48QzT-43" value="" style="rounded=0;whiteSpace=wrap;html=1;shadow=0;glass=0;labelBackgroundColor=none;sketch=0;fontFamily=Times New Roman;fontSize=15;fontColor=#000000;strokeColor=#000000;strokeWidth=2;fillColor=none;textOpacity=70;dashed=1;opacity=70;" vertex="1" parent="AkglLQtFJoY96tl48QzT-1">
          <mxGeometry x="-27.5" y="402" width="445" height="220" as="geometry" />
        </mxCell>
        <mxCell id="AkglLQtFJoY96tl48QzT-44" value="&lt;font style=&quot;font-size: 16px&quot;&gt;&lt;b&gt;Siamese网络&lt;/b&gt;&lt;/font&gt;" style="text;html=1;align=center;verticalAlign=middle;resizable=0;points=[];autosize=1;strokeColor=none;fontSize=15;fontFamily=Times New Roman;fontColor=#000000;" vertex="1" parent="AkglLQtFJoY96tl48QzT-1">
          <mxGeometry x="145" y="450" width="100" height="20" as="geometry" />
        </mxCell>
      </root>
    </mxGraphModel>
  </diagram>
</mxfile>
